<svg width="223" height="63" fill="none" xmlns="http://www.w3.org/2000/svg"><path d="M26.719 18.36v-2.485H2.203v2.484h10.899L13.078 50h2.742V18.36h10.9zm7.38 32.109c2.11 0 3.962-.414 5.555-1.242 1.594-.829 2.875-1.914 3.844-3.258l-1.781-1.36a9.115 9.115 0 01-3.258 2.578c-1.266.594-2.68.891-4.242.891-1.36-.016-2.594-.289-3.703-.82a8.86 8.86 0 01-2.86-2.156 10.324 10.324 0 01-1.851-3.07c-.438-1.157-.688-2.407-.75-3.75v-.774h18.984v-1.711c0-1.61-.234-3.117-.703-4.524-.453-1.421-1.125-2.656-2.016-3.703-.875-1.062-1.968-1.89-3.28-2.484-1.298-.61-2.782-.914-4.454-.914-1.594 0-3.078.328-4.453.984a11.163 11.163 0 00-3.563 2.719c-1.03 1.156-1.843 2.516-2.437 4.078-.578 1.563-.867 3.25-.867 5.063v1.007c0 1.704.289 3.313.867 4.829.578 1.5 1.39 2.82 2.437 3.96a11.3 11.3 0 003.727 2.672c1.453.657 3.055.985 4.805.985zm-.515-23.883c1.203 0 2.273.234 3.211.703a7.281 7.281 0 012.39 1.828 8.575 8.575 0 011.5 2.672 8.744 8.744 0 01.563 3.047v.258H25.193c.157-1.219.47-2.344.938-3.375.469-1.047 1.062-1.946 1.781-2.696a7.923 7.923 0 012.531-1.78c.954-.438 2-.657 3.141-.657zM59.715 43.53c0 .594-.133 1.133-.398 1.617-.25.485-.61.914-1.079 1.29-.718.546-1.57.96-2.554 1.242-.985.265-2.031.398-3.14.398-.845 0-1.712-.078-2.602-.234a8.231 8.231 0 01-2.414-.867 6.139 6.139 0 01-1.875-1.594c-.5-.672-.797-1.508-.891-2.508h-2.813c.047 1.156.344 2.203.891 3.14.563.938 1.328 1.735 2.297 2.391.937.64 2.047 1.149 3.328 1.524 1.281.36 2.64.539 4.078.539 1.328 0 2.625-.164 3.89-.492 1.282-.329 2.415-.836 3.4-1.524a7.047 7.047 0 001.945-2.133c.5-.86.75-1.836.75-2.93 0-1.156-.266-2.14-.797-2.953-.516-.828-1.211-1.53-2.086-2.109-.89-.578-1.922-1.055-3.094-1.43a40.69 40.69 0 00-3.68-.984c-1-.203-1.96-.43-2.883-.68-.906-.265-1.687-.593-2.343-.984-.657-.36-1.157-.805-1.5-1.336-.344-.547-.516-1.187-.516-1.922 0-.734.195-1.375.586-1.922a4.639 4.639 0 011.523-1.383 6.97 6.97 0 012.133-.82 11.117 11.117 0 012.508-.281 9.74 9.74 0 012.625.352c.86.234 1.625.57 2.297 1.007a5.42 5.42 0 011.594 1.617c.422.641.64 1.368.656 2.18h2.836c-.047-1.203-.344-2.273-.89-3.21a7.6 7.6 0 00-2.134-2.391c-.89-.641-1.937-1.125-3.14-1.453-1.188-.344-2.469-.516-3.844-.516-1.219 0-2.406.156-3.562.469-1.141.312-2.141.75-3 1.312-.907.61-1.633 1.344-2.18 2.203-.531.86-.797 1.836-.797 2.93 0 1.156.266 2.14.797 2.953a6.623 6.623 0 002.133 1.969c.937.547 1.945.992 3.023 1.336 1.078.343 2.266.648 3.563.914 1.03.219 2.023.484 2.976.797.953.312 1.766.687 2.438 1.125a4.46 4.46 0 011.43 1.43c.343.546.515 1.187.515 1.921zm18.748 0c0 .594-.133 1.133-.398 1.617-.25.485-.61.914-1.078 1.29-.72.546-1.57.96-2.555 1.242-.984.265-2.031.398-3.14.398a15.05 15.05 0 01-2.602-.234 8.231 8.231 0 01-2.414-.867 6.141 6.141 0 01-1.875-1.594c-.5-.672-.797-1.508-.891-2.508h-2.813c.047 1.156.344 2.203.891 3.14.563.938 1.328 1.735 2.297 2.391.938.64 2.047 1.149 3.328 1.524 1.281.36 2.64.539 4.078.539a15.44 15.44 0 003.89-.492c1.282-.329 2.415-.836 3.4-1.524a7.047 7.047 0 001.945-2.133c.5-.86.75-1.836.75-2.93 0-1.156-.266-2.14-.797-2.953-.516-.828-1.211-1.53-2.086-2.109-.89-.578-1.922-1.055-3.094-1.43a40.702 40.702 0 00-3.68-.984c-1-.203-1.96-.43-2.882-.68-.907-.265-1.688-.593-2.344-.984-.656-.36-1.156-.805-1.5-1.336-.344-.547-.516-1.187-.516-1.922 0-.734.196-1.375.586-1.922a4.64 4.64 0 011.524-1.383 6.969 6.969 0 012.132-.82 11.117 11.117 0 012.508-.281 9.74 9.74 0 012.625.352c.86.234 1.625.57 2.297 1.007a5.42 5.42 0 011.594 1.617c.422.641.64 1.368.656 2.18h2.836c-.047-1.203-.344-2.273-.89-3.21a7.6 7.6 0 00-2.133-2.391c-.891-.641-1.938-1.125-3.141-1.453-1.188-.344-2.469-.516-3.844-.516-1.219 0-2.406.156-3.562.469-1.14.312-2.14.75-3 1.312-.907.61-1.633 1.344-2.18 2.203-.531.86-.797 1.836-.797 2.93 0 1.156.266 2.14.797 2.953a6.623 6.623 0 002.133 1.969c.937.547 1.945.992 3.023 1.336 1.078.343 2.266.648 3.563.914 1.031.219 2.023.484 2.976.797.953.312 1.766.687 2.438 1.125a4.46 4.46 0 011.43 1.43c.343.546.515 1.187.515 1.921zm11.881 6.938c2.11 0 3.961-.414 5.555-1.242 1.594-.829 2.875-1.914 3.844-3.258l-1.782-1.36a9.114 9.114 0 01-3.258 2.578c-1.265.594-2.68.891-4.242.891-1.36-.016-2.593-.289-3.703-.82a8.86 8.86 0 01-2.86-2.156 10.324 10.324 0 01-1.85-3.07c-.438-1.157-.688-2.407-.75-3.75v-.774h18.984v-1.711c0-1.61-.235-3.117-.704-4.524-.453-1.421-1.125-2.656-2.015-3.703-.875-1.062-1.969-1.89-3.281-2.484-1.297-.61-2.782-.914-4.454-.914-1.593 0-3.078.328-4.453.984a11.16 11.16 0 00-3.562 2.719c-1.031 1.156-1.844 2.516-2.438 4.078-.578 1.563-.867 3.25-.867 5.063v1.007c0 1.704.29 3.313.867 4.829.578 1.5 1.39 2.82 2.438 3.96a11.3 11.3 0 003.726 2.672c1.454.657 3.055.985 4.805.985zm-.516-23.883c1.204 0 2.274.234 3.211.703a7.281 7.281 0 012.391 1.828 8.579 8.579 0 011.5 2.672 8.744 8.744 0 01.563 3.047v.258H81.438c.156-1.219.469-2.344.937-3.375.47-1.047 1.063-1.946 1.782-2.696a7.922 7.922 0 012.53-1.78c.954-.438 2-.657 3.141-.657zm25.217-2.414c-2.297-.016-4.297.46-6 1.43-1.687.968-3.023 2.32-4.008 4.054l-.023-1.125-.164-3.89h-2.672V50h2.906l-.047-16.242c.313-1.156.758-2.156 1.336-3a8.123 8.123 0 012.086-2.11 8.287 8.287 0 012.789-1.289 12.872 12.872 0 013.352-.422c.687 0 1.359.04 2.016.118.656.078 1.304.187 1.945.328l.375-2.719c-.484-.156-1.086-.273-1.805-.352a15.772 15.772 0 00-2.086-.14zM134.45 50h3v-.305a25.29 25.29 0 01-.563-2.437 18.381 18.381 0 01-.234-2.578V32.422c-.016-1.375-.274-2.578-.774-3.61a7.252 7.252 0 00-2.062-2.578c-.875-.687-1.899-1.203-3.07-1.547-1.172-.343-2.43-.515-3.774-.515a12.54 12.54 0 00-3.797.562c-1.172.375-2.203.891-3.093 1.547a8.054 8.054 0 00-2.133 2.367 6.322 6.322 0 00-.867 2.977l2.812.023c.031-.796.242-1.507.633-2.132.39-.641.906-1.18 1.547-1.618a7.171 7.171 0 012.179-1.007 9.516 9.516 0 012.602-.352 9.09 9.09 0 012.742.398c.86.25 1.602.618 2.227 1.102a5.122 5.122 0 011.476 1.828c.36.719.547 1.555.563 2.508v2.86h-5.508c-1.578 0-3.086.148-4.523.445-1.438.28-2.704.742-3.797 1.383a7.69 7.69 0 00-2.602 2.507c-.641 1.016-.961 2.25-.961 3.703 0 1.079.219 2.063.656 2.954a6.87 6.87 0 001.782 2.273c.75.61 1.64 1.094 2.672 1.453 1.031.344 2.132.516 3.304.516.938 0 1.836-.102 2.696-.305a11.368 11.368 0 002.46-.82 10.87 10.87 0 002.133-1.336 10.051 10.051 0 001.711-1.758c.031.656.086 1.305.164 1.945.094.64.227 1.242.399 1.805zm-9.235-2.04a7.44 7.44 0 01-2.32-.35 5.942 5.942 0 01-1.875-.985 4.553 4.553 0 01-1.289-1.547 4.743 4.743 0 01-.445-2.062c-.016-.938.187-1.735.609-2.391a5.35 5.35 0 011.711-1.688c.859-.546 1.914-.93 3.164-1.148a23.296 23.296 0 013.984-.375h5.11v5.555a8.336 8.336 0 01-1.406 2.062 8.955 8.955 0 01-1.993 1.57 9.81 9.81 0 01-2.461 1.008c-.89.235-1.82.352-2.789.352zm20.858.118c-1.5 0-2.774-.297-3.82-.89a7.587 7.587 0 01-2.532-2.344 10.01 10.01 0 01-1.429-3.282 16.608 16.608 0 01-.469-3.75v-.984c.015-1.266.172-2.508.469-3.726a10.01 10.01 0 011.429-3.282 7.818 7.818 0 012.555-2.343c1.031-.594 2.289-.891 3.773-.891 1 0 1.93.164 2.789.492.875.328 1.633.79 2.274 1.383a6.223 6.223 0 011.547 2.086c.39.797.617 1.672.679 2.625h2.672a9.28 9.28 0 00-.843-3.61 8.73 8.73 0 00-2.11-2.859c-.875-.797-1.914-1.414-3.117-1.851-1.187-.454-2.484-.68-3.891-.68-1.859 0-3.476.351-4.851 1.055-1.375.703-2.516 1.64-3.422 2.812-.922 1.172-1.609 2.523-2.063 4.055a17.028 17.028 0 00-.703 4.734v.984a17.28 17.28 0 00.703 4.758c.454 1.516 1.141 2.86 2.063 4.032a10.272 10.272 0 003.445 2.812c1.375.703 2.992 1.055 4.852 1.055a10.78 10.78 0 003.68-.633c1.187-.422 2.226-1 3.117-1.734a8.91 8.91 0 002.203-2.625 7.588 7.588 0 00.937-3.329h-2.672a6.107 6.107 0 01-.726 2.461 5.999 5.999 0 01-1.617 1.875 7.342 7.342 0 01-2.274 1.196 8.761 8.761 0 01-2.648.398zm17.81-29.93h-2.859v6.493h-7.055v2.32h7.055v15.89c.016 1.391.219 2.57.609 3.54.407.953.961 1.734 1.665 2.343a6.331 6.331 0 002.484 1.313c.969.281 2.016.422 3.141.422.546 0 1.093-.024 1.64-.07a17.1 17.1 0 001.617-.165c.407-.062.789-.14 1.149-.234.375-.11.711-.227 1.008-.352l-.446-2.132c-.234.03-.508.078-.82.14-.313.047-.641.094-.984.14a18.57 18.57 0 01-2.696.188 8.682 8.682 0 01-2.156-.257 4.728 4.728 0 01-1.734-.844c-.5-.406-.899-.93-1.196-1.57-.281-.657-.429-1.477-.445-2.461V26.96h9.398v-2.32h-9.398l.023-6.493zm8.685-3.832c-.735.723-1.595 1.084-2.578 1.084-1.256 0-2.262-.43-3.017-1.289-.756-.866-1.133-2.03-1.133-3.496 0-.93.202-1.784.605-2.558a4.47 4.47 0 011.709-1.817c.729-.436 1.55-.654 2.461-.654.938 0 1.771.234 2.5.703.729.469 1.296 1.143 1.699 2.022.404.878.609 1.884.616 3.017v1.045c0 2.37-.59 4.232-1.768 5.586s-2.848 2.077-5.01 2.168l-.693.01v-2.354l.625-.01c2.454-.11 3.783-1.263 3.984-3.457zm-1.884-1.074c.455 0 .846-.117 1.171-.351.333-.235.583-.518.752-.85v-1.162c0-.957-.182-1.7-.546-2.227-.365-.527-.853-.79-1.465-.79-.567 0-1.032.26-1.397.78-.364.515-.547 1.163-.547 1.944 0 .775.176 1.413.528 1.914.358.495.859.742 1.504.742zM187.197 20h-9.746v-1.934l4.6-4.902c.631-.69 1.097-1.292 1.396-1.807.306-.514.459-1.002.459-1.464 0-.632-.159-1.127-.478-1.485-.319-.364-.775-.547-1.367-.547-.638 0-1.143.222-1.514.664-.365.437-.547 1.013-.547 1.729h-2.832c0-.866.205-1.657.615-2.373a4.375 4.375 0 011.758-1.68c.755-.41 1.611-.615 2.568-.615 1.465 0 2.601.351 3.409 1.055.813.703 1.22 1.696 1.22 2.978 0 .703-.182 1.42-.547 2.149-.364.729-.989 1.578-1.875 2.548l-3.232 3.409h6.113V20zm10.088-5.352h1.611v2.276h-1.611V20h-2.822v-3.076h-5.83l-.127-1.777 5.928-9.366h2.851v8.867zm-5.967 0h3.145v-5.02l-.186.323-2.959 4.697zm18.77-7.285L204.59 20h-2.979l5.508-11.934h-7.07V5.781h10.039v1.582zM221.65 20h-9.746v-1.934l4.6-4.902c.631-.69 1.097-1.292 1.396-1.807.306-.514.459-1.002.459-1.464 0-.632-.159-1.127-.478-1.485-.319-.364-.775-.547-1.367-.547-.638 0-1.143.222-1.514.664-.365.437-.547 1.013-.547 1.729h-2.832c0-.866.205-1.657.615-2.373a4.375 4.375 0 011.758-1.68c.755-.41 1.611-.615 2.568-.615 1.465 0 2.601.351 3.409 1.055.814.703 1.22 1.696 1.22 2.978 0 .703-.182 1.42-.546 2.149-.365.729-.99 1.578-1.875 2.548l-3.233 3.409h6.113V20z" fill="#fff"/></svg>