<svg width="223" height="63" viewBox="0 0 223 63" fill="none" xmlns="http://www.w3.org/2000/svg">
<path d="M26.7188 18.3594V15.875H2.20312V18.3594H13.1016L13.0781 50H15.8203V18.3594H26.7188ZM34.0997 50.4688C36.2091 50.4688 38.0606 50.0547 39.6544 49.2266C41.2481 48.3984 42.5294 47.3125 43.4981 45.9688L41.7169 44.6094C40.8106 45.7344 39.7247 46.5938 38.4591 47.1875C37.1934 47.7812 35.7794 48.0781 34.2169 48.0781C32.8575 48.0625 31.6231 47.7891 30.5138 47.2578C29.4044 46.7266 28.4513 46.0078 27.6544 45.1016C26.8731 44.2109 26.2559 43.1875 25.8028 42.0312C25.3653 40.875 25.1153 39.625 25.0528 38.2812V37.5078H44.0372V35.7969C44.0372 34.1875 43.8028 32.6797 43.3341 31.2734C42.8809 29.8516 42.2091 28.6172 41.3184 27.5703C40.4434 26.5078 39.3497 25.6797 38.0372 25.0859C36.7403 24.4766 35.2559 24.1719 33.5841 24.1719C31.9903 24.1719 30.5059 24.5 29.1309 25.1562C27.7716 25.8125 26.5841 26.7188 25.5684 27.875C24.5372 29.0312 23.7247 30.3906 23.1309 31.9531C22.5528 33.5156 22.2638 35.2031 22.2638 37.0156V38.0234C22.2638 39.7266 22.5528 41.3359 23.1309 42.8516C23.7091 44.3516 24.5216 45.6719 25.5684 46.8125C26.5997 47.9375 27.8419 48.8281 29.295 49.4844C30.7481 50.1406 32.3497 50.4688 34.0997 50.4688ZM33.5841 26.5859C34.7872 26.5859 35.8575 26.8203 36.795 27.2891C37.7325 27.7422 38.5294 28.3516 39.1856 29.1172C39.8263 29.8828 40.3263 30.7734 40.6856 31.7891C41.0606 32.8047 41.2481 33.8203 41.2481 34.8359V35.0938H25.1934C25.3497 33.875 25.6622 32.75 26.1309 31.7188C26.5997 30.6719 27.1934 29.7734 27.9122 29.0234C28.6466 28.2578 29.4903 27.6641 30.4434 27.2422C31.3966 26.8047 32.4434 26.5859 33.5841 26.5859ZM59.715 43.5312C59.715 44.125 59.5822 44.6641 59.3166 45.1484C59.0666 45.6328 58.7072 46.0625 58.2384 46.4375C57.5197 46.9844 56.6681 47.3984 55.6838 47.6797C54.6994 47.9453 53.6525 48.0781 52.5431 48.0781C51.6994 48.0781 50.8322 48 49.9416 47.8438C49.0666 47.6719 48.2619 47.3828 47.5275 46.9766C46.7931 46.5703 46.1681 46.0391 45.6525 45.3828C45.1525 44.7109 44.8556 43.875 44.7619 42.875H41.9494C41.9963 44.0312 42.2931 45.0781 42.84 46.0156C43.4025 46.9531 44.1681 47.75 45.1369 48.4062C46.0744 49.0469 47.1838 49.5547 48.465 49.9297C49.7463 50.2891 51.1056 50.4688 52.5431 50.4688C53.8713 50.4688 55.1681 50.3047 56.4338 49.9766C57.715 49.6484 58.8478 49.1406 59.8322 48.4531C60.6291 47.875 61.2775 47.1641 61.7775 46.3203C62.2775 45.4609 62.5275 44.4844 62.5275 43.3906C62.5275 42.2344 62.2619 41.25 61.7306 40.4375C61.215 39.6094 60.5197 38.9062 59.6447 38.3281C58.7541 37.75 57.7228 37.2734 56.5509 36.8984C55.3791 36.5234 54.1525 36.1953 52.8713 35.9141C51.8713 35.7109 50.9103 35.4844 49.9884 35.2344C49.0822 34.9688 48.3009 34.6406 47.6447 34.25C46.9884 33.8906 46.4884 33.4453 46.1447 32.9141C45.8009 32.3672 45.6291 31.7266 45.6291 30.9922C45.6291 30.2578 45.8244 29.6172 46.215 29.0703C46.6056 28.5078 47.1134 28.0469 47.7384 27.6875C48.3634 27.3125 49.0744 27.0391 49.8713 26.8672C50.6838 26.6797 51.5197 26.5859 52.3791 26.5859C53.2853 26.5859 54.1603 26.7031 55.0041 26.9375C55.8634 27.1719 56.6291 27.5078 57.3009 27.9453C57.9572 28.3828 58.4884 28.9219 58.8947 29.5625C59.3166 30.2031 59.5353 30.9297 59.5509 31.7422H62.3869C62.34 30.5391 62.0431 29.4688 61.4963 28.5312C60.965 27.5938 60.2541 26.7969 59.3634 26.1406C58.4728 25.5 57.4259 25.0156 56.2228 24.6875C55.0353 24.3438 53.7541 24.1719 52.3791 24.1719C51.1603 24.1719 49.9728 24.3281 48.8166 24.6406C47.6759 24.9531 46.6759 25.3906 45.8166 25.9531C44.9103 26.5625 44.1838 27.2969 43.6369 28.1562C43.1056 29.0156 42.84 29.9922 42.84 31.0859C42.84 32.2422 43.1056 33.2266 43.6369 34.0391C44.1838 34.8359 44.8947 35.4922 45.7697 36.0078C46.7072 36.5547 47.715 37 48.7931 37.3438C49.8713 37.6875 51.0588 37.9922 52.3556 38.2578C53.3869 38.4766 54.3791 38.7422 55.3322 39.0547C56.2853 39.3672 57.0978 39.7422 57.7697 40.1797C58.3791 40.5703 58.8556 41.0469 59.1994 41.6094C59.5431 42.1562 59.715 42.7969 59.715 43.5312ZM78.4631 43.5312C78.4631 44.125 78.3303 44.6641 78.0647 45.1484C77.8147 45.6328 77.4553 46.0625 76.9866 46.4375C76.2678 46.9844 75.4163 47.3984 74.4319 47.6797C73.4475 47.9453 72.4006 48.0781 71.2913 48.0781C70.4475 48.0781 69.5803 48 68.6897 47.8438C67.8147 47.6719 67.01 47.3828 66.2756 46.9766C65.5413 46.5703 64.9163 46.0391 64.4006 45.3828C63.9006 44.7109 63.6038 43.875 63.51 42.875H60.6975C60.7444 44.0312 61.0413 45.0781 61.5881 46.0156C62.1506 46.9531 62.9163 47.75 63.885 48.4062C64.8225 49.0469 65.9319 49.5547 67.2131 49.9297C68.4944 50.2891 69.8538 50.4688 71.2913 50.4688C72.6194 50.4688 73.9163 50.3047 75.1819 49.9766C76.4631 49.6484 77.5959 49.1406 78.5803 48.4531C79.3772 47.875 80.0256 47.1641 80.5256 46.3203C81.0256 45.4609 81.2756 44.4844 81.2756 43.3906C81.2756 42.2344 81.01 41.25 80.4788 40.4375C79.9631 39.6094 79.2678 38.9062 78.3928 38.3281C77.5022 37.75 76.4709 37.2734 75.2991 36.8984C74.1272 36.5234 72.9006 36.1953 71.6194 35.9141C70.6194 35.7109 69.6584 35.4844 68.7366 35.2344C67.8303 34.9688 67.0491 34.6406 66.3928 34.25C65.7366 33.8906 65.2366 33.4453 64.8928 32.9141C64.5491 32.3672 64.3772 31.7266 64.3772 30.9922C64.3772 30.2578 64.5725 29.6172 64.9631 29.0703C65.3538 28.5078 65.8616 28.0469 66.4866 27.6875C67.1116 27.3125 67.8225 27.0391 68.6194 26.8672C69.4319 26.6797 70.2678 26.5859 71.1272 26.5859C72.0334 26.5859 72.9084 26.7031 73.7522 26.9375C74.6116 27.1719 75.3772 27.5078 76.0491 27.9453C76.7053 28.3828 77.2366 28.9219 77.6428 29.5625C78.0647 30.2031 78.2834 30.9297 78.2991 31.7422H81.135C81.0881 30.5391 80.7913 29.4688 80.2444 28.5312C79.7131 27.5938 79.0022 26.7969 78.1116 26.1406C77.2209 25.5 76.1741 25.0156 74.9709 24.6875C73.7834 24.3438 72.5022 24.1719 71.1272 24.1719C69.9084 24.1719 68.7209 24.3281 67.5647 24.6406C66.4241 24.9531 65.4241 25.3906 64.5647 25.9531C63.6584 26.5625 62.9319 27.2969 62.385 28.1562C61.8538 29.0156 61.5881 29.9922 61.5881 31.0859C61.5881 32.2422 61.8538 33.2266 62.385 34.0391C62.9319 34.8359 63.6428 35.4922 64.5178 36.0078C65.4553 36.5547 66.4631 37 67.5413 37.3438C68.6194 37.6875 69.8069 37.9922 71.1038 38.2578C72.135 38.4766 73.1272 38.7422 74.0803 39.0547C75.0334 39.3672 75.8459 39.7422 76.5178 40.1797C77.1272 40.5703 77.6038 41.0469 77.9475 41.6094C78.2913 42.1562 78.4631 42.7969 78.4631 43.5312ZM90.3441 50.4688C92.4534 50.4688 94.305 50.0547 95.8988 49.2266C97.4925 48.3984 98.7738 47.3125 99.7425 45.9688L97.9613 44.6094C97.055 45.7344 95.9691 46.5938 94.7034 47.1875C93.4378 47.7812 92.0238 48.0781 90.4613 48.0781C89.1019 48.0625 87.8675 47.7891 86.7581 47.2578C85.6488 46.7266 84.6956 46.0078 83.8988 45.1016C83.1175 44.2109 82.5003 43.1875 82.0472 42.0312C81.6097 40.875 81.3597 39.625 81.2972 38.2812V37.5078H100.282V35.7969C100.282 34.1875 100.047 32.6797 99.5784 31.2734C99.1253 29.8516 98.4534 28.6172 97.5628 27.5703C96.6878 26.5078 95.5941 25.6797 94.2816 25.0859C92.9847 24.4766 91.5003 24.1719 89.8284 24.1719C88.2347 24.1719 86.7503 24.5 85.3753 25.1562C84.0159 25.8125 82.8284 26.7188 81.8128 27.875C80.7816 29.0312 79.9691 30.3906 79.3753 31.9531C78.7972 33.5156 78.5081 35.2031 78.5081 37.0156V38.0234C78.5081 39.7266 78.7972 41.3359 79.3753 42.8516C79.9534 44.3516 80.7659 45.6719 81.8128 46.8125C82.8441 47.9375 84.0863 48.8281 85.5394 49.4844C86.9925 50.1406 88.5941 50.4688 90.3441 50.4688ZM89.8284 26.5859C91.0316 26.5859 92.1019 26.8203 93.0394 27.2891C93.9769 27.7422 94.7738 28.3516 95.43 29.1172C96.0706 29.8828 96.5706 30.7734 96.93 31.7891C97.305 32.8047 97.4925 33.8203 97.4925 34.8359V35.0938H81.4378C81.5941 33.875 81.9066 32.75 82.3753 31.7188C82.8441 30.6719 83.4378 29.7734 84.1566 29.0234C84.8909 28.2578 85.7347 27.6641 86.6878 27.2422C87.6409 26.8047 88.6878 26.5859 89.8284 26.5859ZM115.045 24.1719C112.748 24.1562 110.748 24.6328 109.045 25.6016C107.358 26.5703 106.022 27.9219 105.037 29.6562L105.014 28.5312L104.85 24.6406H102.178V50H105.084L105.037 33.7578C105.35 32.6016 105.795 31.6016 106.373 30.7578C106.967 29.8984 107.662 29.1953 108.459 28.6484C109.287 28.0547 110.217 27.625 111.248 27.3594C112.295 27.0781 113.412 26.9375 114.6 26.9375C115.287 26.9375 115.959 26.9766 116.616 27.0547C117.272 27.1328 117.92 27.2422 118.561 27.3828L118.936 24.6641C118.452 24.5078 117.85 24.3906 117.131 24.3125C116.428 24.2188 115.733 24.1719 115.045 24.1719ZM134.45 50H137.45V49.6953C137.231 48.9297 137.043 48.1172 136.887 47.2578C136.747 46.3828 136.668 45.5234 136.653 44.6797V32.4219C136.637 31.0469 136.379 29.8438 135.879 28.8125C135.379 27.7812 134.692 26.9219 133.817 26.2344C132.942 25.5469 131.918 25.0312 130.747 24.6875C129.575 24.3438 128.317 24.1719 126.973 24.1719C125.629 24.1719 124.364 24.3594 123.176 24.7344C122.004 25.1094 120.973 25.625 120.083 26.2812C119.192 26.9531 118.481 27.7422 117.95 28.6484C117.418 29.5547 117.129 30.5469 117.083 31.625L119.895 31.6484C119.926 30.8516 120.137 30.1406 120.528 29.5156C120.918 28.875 121.434 28.3359 122.075 27.8984C122.7 27.4609 123.426 27.125 124.254 26.8906C125.083 26.6562 125.95 26.5391 126.856 26.5391C127.84 26.5391 128.754 26.6719 129.598 26.9375C130.458 27.1875 131.2 27.5547 131.825 28.0391C132.45 28.5234 132.942 29.1328 133.301 29.8672C133.661 30.5859 133.848 31.4219 133.864 32.375V35.2344H128.356C126.778 35.2344 125.27 35.3828 123.833 35.6797C122.395 35.9609 121.129 36.4219 120.036 37.0625C118.958 37.7031 118.09 38.5391 117.434 39.5703C116.793 40.5859 116.473 41.8203 116.473 43.2734C116.473 44.3516 116.692 45.3359 117.129 46.2266C117.567 47.1172 118.161 47.875 118.911 48.5C119.661 49.1094 120.551 49.5938 121.583 49.9531C122.614 50.2969 123.715 50.4688 124.887 50.4688C125.825 50.4688 126.723 50.3672 127.583 50.1641C128.458 49.9766 129.278 49.7031 130.043 49.3438C130.825 48.9688 131.536 48.5234 132.176 48.0078C132.833 47.4766 133.403 46.8906 133.887 46.25C133.918 46.9062 133.973 47.5547 134.051 48.1953C134.145 48.8359 134.278 49.4375 134.45 50ZM125.215 47.9609C124.387 47.9609 123.614 47.8438 122.895 47.6094C122.176 47.375 121.551 47.0469 121.02 46.625C120.473 46.2031 120.043 45.6875 119.731 45.0781C119.434 44.4531 119.286 43.7656 119.286 43.0156C119.27 42.0781 119.473 41.2812 119.895 40.625C120.317 39.9531 120.887 39.3906 121.606 38.9375C122.465 38.3906 123.52 38.0078 124.77 37.7891C126.036 37.5547 127.364 37.4297 128.754 37.4141H133.864V42.9688C133.504 43.7188 133.036 44.4062 132.458 45.0312C131.879 45.6406 131.215 46.1641 130.465 46.6016C129.715 47.0391 128.895 47.375 128.004 47.6094C127.114 47.8438 126.184 47.9609 125.215 47.9609ZM146.073 48.0781C144.573 48.0781 143.299 47.7812 142.253 47.1875C141.221 46.5938 140.378 45.8125 139.721 44.8438C139.065 43.875 138.588 42.7812 138.292 41.5625C137.995 40.3438 137.838 39.0938 137.823 37.8125V36.8281C137.838 35.5625 137.995 34.3203 138.292 33.1016C138.588 31.8828 139.065 30.7891 139.721 29.8203C140.393 28.8516 141.245 28.0703 142.276 27.4766C143.307 26.8828 144.565 26.5859 146.049 26.5859C147.049 26.5859 147.979 26.75 148.838 27.0781C149.713 27.4062 150.471 27.8672 151.112 28.4609C151.768 29.0391 152.284 29.7344 152.659 30.5469C153.049 31.3438 153.276 32.2188 153.338 33.1719H156.01C155.963 31.875 155.682 30.6719 155.167 29.5625C154.651 28.4531 153.948 27.5 153.057 26.7031C152.182 25.9062 151.143 25.2891 149.94 24.8516C148.753 24.3984 147.456 24.1719 146.049 24.1719C144.19 24.1719 142.573 24.5234 141.198 25.2266C139.823 25.9297 138.682 26.8672 137.776 28.0391C136.854 29.2109 136.167 30.5625 135.713 32.0938C135.26 33.6094 135.026 35.1875 135.01 36.8281V37.8125C135.026 39.4531 135.26 41.0391 135.713 42.5703C136.167 44.0859 136.854 45.4297 137.776 46.6016C138.698 47.7734 139.846 48.7109 141.221 49.4141C142.596 50.1172 144.213 50.4688 146.073 50.4688C147.354 50.4688 148.581 50.2578 149.753 49.8359C150.94 49.4141 151.979 48.8359 152.87 48.1016C153.776 47.3672 154.51 46.4922 155.073 45.4766C155.635 44.4609 155.948 43.3516 156.01 42.1484H153.338C153.26 43.0547 153.018 43.875 152.612 44.6094C152.206 45.3438 151.667 45.9688 150.995 46.4844C150.338 47 149.581 47.3984 148.721 47.6797C147.878 47.9453 146.995 48.0781 146.073 48.0781ZM163.883 18.1484H161.024V24.6406H153.969V26.9609H161.024V42.8516C161.04 44.2422 161.243 45.4219 161.633 46.3906C162.04 47.3438 162.594 48.125 163.298 48.7344C164.001 49.3438 164.829 49.7812 165.782 50.0469C166.751 50.3281 167.798 50.4688 168.923 50.4688C169.469 50.4688 170.016 50.4453 170.563 50.3984C171.126 50.3672 171.665 50.3125 172.18 50.2344C172.587 50.1719 172.969 50.0938 173.329 50C173.704 49.8906 174.04 49.7734 174.337 49.6484L173.891 47.5156C173.657 47.5469 173.383 47.5938 173.071 47.6562C172.758 47.7031 172.43 47.75 172.087 47.7969C171.649 47.8594 171.204 47.9062 170.751 47.9375C170.298 47.9688 169.844 47.9844 169.391 47.9844C168.626 47.9844 167.907 47.8984 167.235 47.7266C166.579 47.5547 166.001 47.2734 165.501 46.8828C165.001 46.4766 164.602 45.9531 164.305 45.3125C164.024 44.6562 163.876 43.8359 163.86 42.8516V26.9609H173.258V24.6406H163.86L163.883 18.1484Z" fill="white"/>
<path d="M172.568 14.3164C171.833 15.0391 170.973 15.4004 169.99 15.4004C168.734 15.4004 167.728 14.9707 166.973 14.1113C166.217 13.2454 165.84 12.0801 165.84 10.6152C165.84 9.68424 166.042 8.83138 166.445 8.05664C166.855 7.27539 167.425 6.66992 168.154 6.24023C168.883 5.80404 169.704 5.58594 170.615 5.58594C171.553 5.58594 172.386 5.82031 173.115 6.28906C173.844 6.75781 174.411 7.43164 174.814 8.31055C175.218 9.18945 175.423 10.1953 175.43 11.3281V12.373C175.43 14.7428 174.84 16.6048 173.662 17.959C172.484 19.3132 170.814 20.0358 168.652 20.127L167.959 20.1367V17.7832L168.584 17.7734C171.038 17.6628 172.367 16.5104 172.568 14.3164ZM170.684 13.2422C171.139 13.2422 171.53 13.125 171.855 12.8906C172.188 12.6562 172.438 12.373 172.607 12.041V10.8789C172.607 9.92188 172.425 9.17969 172.061 8.65234C171.696 8.125 171.208 7.86133 170.596 7.86133C170.029 7.86133 169.564 8.12174 169.199 8.64258C168.835 9.1569 168.652 9.80469 168.652 10.5859C168.652 11.3607 168.828 11.9987 169.18 12.5C169.538 12.9948 170.039 13.2422 170.684 13.2422ZM187.197 20H177.451V18.0664L182.051 13.1641C182.682 12.474 183.148 11.8717 183.447 11.3574C183.753 10.8431 183.906 10.3548 183.906 9.89258C183.906 9.26107 183.747 8.76628 183.428 8.4082C183.109 8.04362 182.653 7.86133 182.061 7.86133C181.423 7.86133 180.918 8.08268 180.547 8.52539C180.182 8.96159 180 9.53776 180 10.2539H177.168C177.168 9.38802 177.373 8.59701 177.783 7.88086C178.2 7.16471 178.786 6.60482 179.541 6.20117C180.296 5.79102 181.152 5.58594 182.109 5.58594C183.574 5.58594 184.71 5.9375 185.518 6.64062C186.331 7.34375 186.738 8.33659 186.738 9.61914C186.738 10.3223 186.556 11.0384 186.191 11.7676C185.827 12.4967 185.202 13.3464 184.316 14.3164L181.084 17.7246H187.197V20ZM197.285 14.6484H198.896V16.9238H197.285V20H194.463V16.9238H188.633L188.506 15.1465L194.434 5.78125H197.285V14.6484ZM191.318 14.6484H194.463V9.62891L194.277 9.95117L191.318 14.6484ZM210.088 7.36328L204.59 20H201.611L207.119 8.06641H200.049V5.78125H210.088V7.36328ZM221.65 20H211.904V18.0664L216.504 13.1641C217.135 12.474 217.601 11.8717 217.9 11.3574C218.206 10.8431 218.359 10.3548 218.359 9.89258C218.359 9.26107 218.2 8.76628 217.881 8.4082C217.562 8.04362 217.106 7.86133 216.514 7.86133C215.876 7.86133 215.371 8.08268 215 8.52539C214.635 8.96159 214.453 9.53776 214.453 10.2539H211.621C211.621 9.38802 211.826 8.59701 212.236 7.88086C212.653 7.16471 213.239 6.60482 213.994 6.20117C214.749 5.79102 215.605 5.58594 216.562 5.58594C218.027 5.58594 219.163 5.9375 219.971 6.64062C220.785 7.34375 221.191 8.33659 221.191 9.61914C221.191 10.3223 221.009 11.0384 220.645 11.7676C220.28 12.4967 219.655 13.3464 218.77 14.3164L215.537 17.7246H221.65V20Z" fill="white"/>
</svg>
